<?xml version="1.0" encoding="utf-8"?>
<!-- Generator: Adobe Illustrator 16.0.0, SVG Export Plug-In . SVG Version: 6.00 Build 0)  -->
<!DOCTYPE svg PUBLIC "-//W3C//DTD SVG 1.1//EN" "http://www.w3.org/Graphics/SVG/1.1/DTD/svg11.dtd">
<svg version="1.1" id="Capa_1" xmlns="http://www.w3.org/2000/svg" xmlns:xlink="http://www.w3.org/1999/xlink" x="0px" y="0px"
	 width="800px" height="800px" viewBox="0 0 800 800" enable-background="new 0 0 800 800" xml:space="preserve">
<g id="Search">
	<path fill="#FFFFFF" d="M780.418,685.874L606.623,512.082c-0.924-0.924-2.007-1.569-2.973-2.429
		c34.197-51.874,54.156-113.969,54.156-180.747C657.807,147.256,510.551,0,328.903,0S0,147.256,0,328.903
		c0,181.645,147.252,328.903,328.9,328.903c66.78,0,128.872-19.959,180.746-54.156c0.86,0.962,1.502,2.046,2.426,2.97
		l173.799,173.798c26.108,26.105,68.436,26.105,94.547,0C806.523,754.31,806.523,711.982,780.418,685.874z M328.903,543.786
		c-118.68,0-214.886-96.206-214.886-214.883c0-118.68,96.209-214.886,214.886-214.886c118.674,0,214.883,96.209,214.883,214.886
		S447.577,543.786,328.903,543.786z"/>
</g>
</svg>
